<svg width="45" height="35" viewBox="0 0 45 35" fill="none" xmlns="http://www.w3.org/2000/svg">
<path d="M14.1032 28.2468L12.8797 29.4703C12.7162 29.6338 12.5287 29.7155 12.3172 29.7155C12.1057 29.7155 11.9177 29.6338 11.7532 29.4703L0.346844 18.0625C0.183323 17.8999 0.101562 17.7124 0.101562 17.4999C0.101562 17.2875 0.183323 17.1 0.346844 16.9374L11.7532 5.52963C11.9167 5.36611 12.1047 5.28435 12.3172 5.28435C12.5296 5.28435 12.7171 5.36611 12.8797 5.52963L14.1032 6.7531C14.2667 6.91662 14.3484 7.10462 14.3484 7.3171C14.3484 7.52958 14.2667 7.71709 14.1032 7.87963L4.48284 17.4999L14.1032 27.1203C14.2667 27.2838 14.3484 27.4713 14.3484 27.6828C14.3484 27.8943 14.2667 28.0823 14.1032 28.2468ZM28.5703 2.12654L19.4406 33.7296C19.375 33.9421 19.2482 34.1012 19.0602 34.207C18.8722 34.3127 18.6808 34.3333 18.4859 34.2687L16.9672 33.8515C16.7557 33.7869 16.5966 33.6606 16.4899 33.4726C16.3831 33.2846 16.3631 33.0848 16.4297 32.8733L25.5594 1.27026C25.625 1.05778 25.7518 0.898665 25.9398 0.792915C26.1278 0.687165 26.3192 0.666602 26.5141 0.731227L28.0328 1.14835C28.2443 1.21298 28.4034 1.33929 28.5101 1.52729C28.6169 1.71529 28.6369 1.91504 28.5703 2.12654ZM44.6532 18.0625L33.2468 29.4703C33.0833 29.6338 32.8953 29.7155 32.6828 29.7155C32.4704 29.7155 32.2829 29.6338 32.1203 29.4703L30.8968 28.2468C30.7333 28.0833 30.6516 27.8953 30.6516 27.6828C30.6516 27.4703 30.7333 27.2828 30.8968 27.1203L40.5172 17.4999L30.8968 7.87963C30.7333 7.71611 30.6516 7.5286 30.6516 7.3171C30.6516 7.1056 30.7333 6.9176 30.8968 6.7531L32.1203 5.52963C32.2838 5.36611 32.4713 5.28435 32.6828 5.28435C32.8943 5.28435 33.0823 5.36611 33.2468 5.52963L44.6532 16.9374C44.8167 17.1 44.8984 17.2875 44.8984 17.4999C44.8984 17.7124 44.8167 17.8999 44.6532 18.0625Z" fill="#091747"/>
</svg>
