<svg width="32" height="24" viewBox="0 0 32 24" fill="none" xmlns="http://www.w3.org/2000/svg">
<path d="M9.91 18.697L11.304 16.178C10.268 15.428 9.45833 14.4817 8.875 13.339C8.29167 12.1963 8 10.988 8 9.714C8 8.274 8.36333 6.93467 9.09 5.696C6.36333 7.09 4.095 9.19133 2.285 12C4.273 15.0713 6.81467 17.3043 9.91 18.697ZM16.857 5.142C16.857 4.904 16.7737 4.70167 16.607 4.535C16.4403 4.36833 16.238 4.28533 16 4.286C14.512 4.286 13.2353 4.81867 12.17 5.884C11.1047 6.94933 10.5717 8.226 10.571 9.714C10.571 9.952 10.6543 10.1543 10.821 10.321C10.9877 10.4877 11.1903 10.571 11.429 10.571C11.6677 10.571 11.87 10.4877 12.036 10.321C12.202 10.1543 12.2853 9.952 12.286 9.714C12.286 8.69 12.649 7.815 13.375 7.089C14.101 6.363 14.976 5.99967 16 5.999C16.238 5.999 16.4403 5.91567 16.607 5.749C16.7737 5.58233 16.857 5.38033 16.857 5.143M23.339 1.732C23.339 1.81533 23.333 1.86867 23.321 1.892C22.0597 4.14267 20.179 7.518 17.679 12.018C15.179 16.518 13.304 19.887 12.054 22.125L11.179 23.715C11.0597 23.905 10.893 24 10.679 24C10.5357 24 9.738 23.5833 8.286 22.75C8.09533 22.6307 8 22.464 8 22.25C8 22.1073 8.262 21.5893 8.786 20.696C7.08333 19.9227 5.51467 18.893 4.08 17.607C2.64533 16.321 1.40433 14.8627 0.357 13.232C0.119 12.8627 0 12.452 0 12C0 11.548 0.119 11.1373 0.357 10.768C2.17833 7.97 4.44033 5.76167 7.143 4.143C9.84567 2.52433 12.798 1.71467 16 1.714C17.06 1.714 18.1313 1.81533 19.214 2.018L20.179 0.286C20.2977 0.0953331 20.4643 0 20.679 0C20.7383 0 20.8453 0.0356665 21 0.107C21.1547 0.178333 21.3393 0.270666 21.554 0.384C21.7687 0.497333 21.965 0.607333 22.143 0.714C22.321 0.820666 22.5083 0.930666 22.705 1.044C22.9017 1.15733 23.018 1.226 23.054 1.25C23.244 1.36867 23.339 1.52933 23.339 1.732ZM24 9.714C24 11.3687 23.53 12.8777 22.59 14.241C21.65 15.6043 20.4057 16.5833 18.857 17.178L23.857 8.214C23.9523 8.75 24 9.25 24 9.714ZM32 12C32 12.4167 31.881 12.8273 31.643 13.232C31.1783 13.994 30.5293 14.8573 29.696 15.822C27.9107 17.8687 25.8423 19.4577 23.491 20.589C21.1397 21.7203 18.6427 22.2863 16 22.287L17.321 19.929C19.845 19.715 22.1817 18.8997 24.331 17.483C26.4803 16.0663 28.2747 14.239 29.714 12.001C28.3453 9.86967 26.667 8.11967 24.679 6.751L25.804 4.751C26.9347 5.513 28.021 6.42367 29.063 7.483C30.105 8.54233 30.965 9.63767 31.643 10.769C31.881 11.1737 32 11.5833 32 12Z" fill="#091747"/>
</svg>
