<svg width="32" height="21" viewBox="0 0 32 21" fill="none" xmlns="http://www.w3.org/2000/svg">
<path d="M29.714 10.286C27.9047 7.47667 25.637 5.37533 22.911 3.982C23.637 5.22 24 6.55933 24 8C24 10.2027 23.2173 12.0867 21.652 13.652C20.0867 15.2173 18.2027 16 16 16C13.7973 16 11.9133 15.2173 10.348 13.652C8.78267 12.0867 8 10.2027 8 8C8 6.56 8.36333 5.22067 9.09 3.982C6.36333 5.376 4.095 7.47733 2.285 10.286C3.86833 12.726 5.85333 14.6693 8.24 16.116C10.6267 17.5627 13.2133 18.286 16 18.286C18.7867 18.286 21.373 17.5627 23.759 16.116C26.145 14.6693 28.13 12.726 29.714 10.286ZM16.857 3.429C16.857 3.191 16.7737 2.98867 16.607 2.822C16.4403 2.65533 16.238 2.572 16 2.572C14.512 2.572 13.2353 3.10467 12.17 4.17C11.1047 5.23533 10.5717 6.512 10.571 8C10.571 8.238 10.6543 8.44033 10.821 8.607C10.9877 8.77367 11.1903 8.857 11.429 8.857C11.6677 8.857 11.87 8.77367 12.036 8.607C12.202 8.44033 12.2853 8.238 12.286 8C12.286 6.976 12.649 6.101 13.375 5.375C14.101 4.649 14.976 4.28567 16 4.285C16.238 4.285 16.4403 4.20167 16.607 4.035C16.7737 3.86833 16.857 3.66633 16.857 3.429ZM32 10.286C32 10.6907 31.881 11.1013 31.643 11.518C29.9763 14.256 27.7353 16.4493 24.92 18.098C22.1047 19.7467 19.1313 20.5717 16 20.573C12.8687 20.5743 9.89533 19.7467 7.08 18.09C4.26467 16.4333 2.02367 14.243 0.357 11.519C0.119 11.1017 0 10.6907 0 10.286C0 9.88133 0.119 9.47067 0.357 9.054C2.02367 6.32733 4.26467 4.13667 7.08 2.482C9.89533 0.827333 12.8687 0 16 0C19.1313 0 22.1047 0.827333 24.92 2.482C27.7353 4.13667 29.9763 6.32733 31.643 9.054C31.881 9.47067 32 9.88133 32 10.286Z" fill="#091747"/>
</svg>
