<svg width="32" height="26" viewBox="0 0 32 26" fill="none" xmlns="http://www.w3.org/2000/svg">
<g filter="url(#filter0_di_22_3)">
<path d="M4 4H28C29.104 4 30 3.104 30 2C30 0.896 29.104 0 28 0H4C2.896 0 2 0.896 2 2C2 3.104 2.896 4 4 4ZM28 8H4C2.896 8 2 8.896 2 10C2 11.104 2.896 12 4 12H28C29.104 12 30 11.104 30 10C30 8.896 29.104 8 28 8ZM28 16H4C2.896 16 2 16.896 2 18C2 19.104 2.896 20 4 20H28C29.104 20 30 19.104 30 18C30 16.896 29.104 16 28 16Z" fill="url(#paint0_linear_22_3)"/>
</g>
<defs>
<filter id="filter0_di_22_3" x="-2" y="0" width="36" height="28" filterUnits="userSpaceOnUse" color-interpolation-filters="sRGB">
<feFlood flood-opacity="0" result="BackgroundImageFix"/>
<feColorMatrix in="SourceAlpha" type="matrix" values="0 0 0 0 0 0 0 0 0 0 0 0 0 0 0 0 0 0 127 0" result="hardAlpha"/>
<feOffset dy="4"/>
<feGaussianBlur stdDeviation="2"/>
<feComposite in2="hardAlpha" operator="out"/>
<feColorMatrix type="matrix" values="0 0 0 0 0 0 0 0 0 0 0 0 0 0 0 0 0 0 0.25 0"/>
<feBlend mode="normal" in2="BackgroundImageFix" result="effect1_dropShadow_22_3"/>
<feBlend mode="normal" in="SourceGraphic" in2="effect1_dropShadow_22_3" result="shape"/>
<feColorMatrix in="SourceAlpha" type="matrix" values="0 0 0 0 0 0 0 0 0 0 0 0 0 0 0 0 0 0 127 0" result="hardAlpha"/>
<feOffset dy="4"/>
<feGaussianBlur stdDeviation="2"/>
<feComposite in2="hardAlpha" operator="arithmetic" k2="-1" k3="1"/>
<feColorMatrix type="matrix" values="0 0 0 0 0 0 0 0 0 0 0 0 0 0 0 0 0 0 0.25 0"/>
<feBlend mode="normal" in2="shape" result="effect2_innerShadow_22_3"/>
</filter>
<linearGradient id="paint0_linear_22_3" x1="2" y1="10" x2="30" y2="10" gradientUnits="userSpaceOnUse">
<stop stop-color="#091747"/>
<stop offset="1" stop-color="#1638AD"/>
</linearGradient>
</defs>
</svg>
