<svg width="47" height="41" viewBox="0 0 47 41" fill="none" xmlns="http://www.w3.org/2000/svg">
<path d="M15.6569 8.04208V38.8065C15.6569 39.2442 15.5477 39.6163 15.3293 39.9228C15.111 40.2292 14.7923 40.382 14.3732 40.381C14.0755 40.381 13.7867 40.311 13.5066 40.171L1.31159 34.061C0.944406 33.8847 0.63401 33.591 0.380406 33.1797C0.126802 32.7685 0 32.3626 0 31.9621V2.0628C0 1.71323 0.0876354 1.41606 0.262906 1.17126C0.438177 0.926473 0.691292 0.804077 1.02225 0.804077C1.26704 0.804077 1.65185 0.935286 2.17669 1.1977L15.579 7.91283C15.6319 7.96472 15.6583 8.0083 15.6583 8.04355M17.3386 10.6917L31.3431 33.4059L17.3386 26.4294V10.6917ZM47 11.1632V38.8065C47 39.2442 46.8776 39.5982 46.6328 39.8684C46.388 40.1387 46.0556 40.2743 45.6355 40.2753C45.2155 40.2762 44.8047 40.1627 44.4033 39.9345L32.8368 34.1653L47 11.1632ZM46.9207 8.01564C46.9207 8.06851 44.6784 11.736 40.1938 19.018C35.7092 26.3001 33.0821 30.5619 32.3125 31.8035L22.0841 15.1758L30.5808 1.35486C30.8785 0.865275 31.3333 0.620483 31.9453 0.620483C32.1901 0.620483 32.4173 0.67238 32.6268 0.776171L46.8164 7.85848C46.8859 7.89373 46.9207 7.94612 46.9207 8.01564Z" fill="#091747"/>
</svg>
