<svg width="23" height="28" viewBox="0 0 23 28" fill="none" xmlns="http://www.w3.org/2000/svg">
<path d="M23 23.1381C23 24.4441 22.6257 25.564 21.877 26.498C21.1283 27.432 20.227 27.8994 19.173 27.9H3.827C2.77367 27.9 1.87233 27.4327 1.123 26.498C0.373668 25.5634 -0.000665778 24.4434 8.88889e-07 23.1381C8.88889e-07 22.1201 0.0510009 21.1587 0.153001 20.254C0.255001 19.3494 0.443668 18.4391 0.719001 17.5231C0.994334 16.6071 1.34433 15.8224 1.769 15.1691C2.19367 14.5157 2.757 13.9824 3.459 13.569C4.161 13.1557 4.96667 12.9494 5.876 12.95C7.44533 14.4834 9.32 15.25 11.5 15.25C13.68 15.25 15.5547 14.4834 17.124 12.95C18.0347 12.95 18.8403 13.1567 19.541 13.57C20.2417 13.9834 20.805 14.5167 21.231 15.17C21.657 15.8234 22.007 16.6077 22.281 17.5231C22.555 18.4384 22.7437 19.3487 22.847 20.254C22.9503 21.1594 23.0013 22.1207 23 23.1381ZM18.4 7.20005C18.4 9.10472 17.7263 10.7311 16.379 12.0791C15.0317 13.4271 13.4053 14.1007 11.5 14.1C9.59467 14.0994 7.96833 13.4257 6.621 12.0791C5.27367 10.7324 4.6 9.10605 4.6 7.20005C4.6 5.29405 5.27367 3.66772 6.621 2.32105C7.96833 0.974383 9.59467 0.300716 11.5 0.300049C13.4053 0.299383 15.0317 0.973049 16.379 2.32105C17.7263 3.66905 18.4 5.29538 18.4 7.20005Z" fill="#091747"/>
</svg>
