<svg width="38" height="45" viewBox="0 0 38 45" fill="none" xmlns="http://www.w3.org/2000/svg">
<path d="M15.4219 41.125L17.9922 29.1297L15.4219 25.7031L11.9953 23.9891L15.4219 41.125ZM22.2765 41.125L25.7031 23.9891L22.2765 25.7031L19.7062 29.1297L22.2765 41.125ZM26.5594 14.0838C26.5242 14.0124 26.4884 13.9585 26.4522 13.9223C26.274 13.7793 25.4172 13.7078 23.8819 13.7078C22.6325 13.7078 21.1422 13.8777 19.411 14.2175C19.2866 14.2528 19.0991 14.2704 18.8485 14.2704C18.5978 14.2704 18.4108 14.2528 18.2874 14.2175C16.5553 13.8777 15.0645 13.7078 13.8151 13.7078C12.2807 13.7078 11.4239 13.7793 11.2448 13.9223C11.2095 13.9585 11.1738 14.0124 11.1375 14.0838C11.1738 14.405 11.2095 14.6459 11.2448 14.8065C11.281 14.8593 11.3481 14.9171 11.446 14.9798C11.5439 15.0424 11.611 15.1364 11.6472 15.2618C11.6824 15.3333 11.749 15.5159 11.8469 15.8096C11.9449 16.1034 12.0075 16.2865 12.0349 16.3589C12.0624 16.4314 12.1294 16.5832 12.2362 16.8142C12.3429 17.0453 12.4188 17.1971 12.4638 17.2696C12.5089 17.342 12.5891 17.4669 12.7047 17.6441C12.8202 17.8213 12.927 17.9418 13.0249 18.0054C13.1228 18.0691 13.2481 18.1538 13.4009 18.2595C13.5536 18.3653 13.7098 18.4367 13.8694 18.4739C14.029 18.5111 14.2116 18.5469 14.4172 18.5812C14.6229 18.6154 14.8417 18.6331 15.0738 18.634C15.7161 18.634 16.2429 18.5229 16.6542 18.3006C17.0654 18.0784 17.3552 17.8106 17.5237 17.4972C17.6921 17.1839 17.8213 16.8754 17.9114 16.5719C18.0015 16.2684 18.1043 16.0055 18.2198 15.7832C18.3354 15.5609 18.4916 15.4493 18.6884 15.4483H19.01C19.2059 15.4483 19.362 15.5599 19.4786 15.7832C19.5951 16.0064 19.6979 16.2698 19.787 16.5734C19.8761 16.8769 20.0054 17.1849 20.1748 17.4972C20.3441 17.8096 20.634 18.0774 21.0443 18.3006C21.4545 18.5239 21.9813 18.635 22.6246 18.634C22.8567 18.634 23.075 18.6164 23.2797 18.5812C23.4843 18.5459 23.6674 18.5102 23.829 18.4739C23.9906 18.4377 24.1467 18.3662 24.2975 18.2595C24.4483 18.1528 24.5732 18.0681 24.6721 18.0054C24.771 17.9427 24.8782 17.8223 24.9937 17.6441C25.1093 17.4659 25.1896 17.341 25.2346 17.2696C25.2796 17.1981 25.3555 17.0463 25.4623 16.8142C25.569 16.5822 25.6361 16.4304 25.6635 16.3589C25.6909 16.2875 25.7531 16.1044 25.85 15.8096C25.9469 15.5149 26.014 15.3323 26.0512 15.2618C26.0865 15.1364 26.1535 15.0424 26.2524 14.9798C26.3513 14.9171 26.4179 14.8593 26.4522 14.8065C26.4884 14.6459 26.5242 14.405 26.5594 14.0838ZM37.6984 37.6176C37.6984 39.7777 37.0468 41.4736 35.7435 42.7054C34.4402 43.9372 32.7086 44.5526 30.5485 44.5516H7.14841C4.98836 44.5516 3.2572 43.9362 1.95491 42.7054C0.652615 41.4746 0.000979167 39.7786 0 37.6176C0 36.5288 0.0401458 35.4757 0.120438 34.4583C0.200729 33.441 0.370125 32.3208 0.628625 31.0978C0.887125 29.8749 1.222 28.7728 1.63325 27.7917C2.0445 26.8106 2.61144 25.8867 3.33406 25.0202C4.05669 24.1536 4.89094 23.4887 5.83681 23.0256L3.42806 17.1359H9.15619C8.76452 15.9932 8.56869 14.8505 8.56869 13.7078C8.56869 13.4944 8.58631 13.209 8.62156 12.8516C5.15825 12.1368 3.42659 11.28 3.42659 10.2812C3.42659 9.26292 5.30072 8.37922 9.04897 7.63016C9.35251 6.5237 9.81272 5.32814 10.4296 4.04347C11.0465 2.7588 11.6746 1.74096 12.314 0.989938C12.8878 0.329979 13.5668 0 14.3512 0C14.8868 0 15.6363 0.276615 16.5998 0.829844C17.5633 1.38307 18.3129 1.65969 18.8485 1.65969C19.3841 1.65969 20.1341 1.38307 21.0986 0.829844C22.0631 0.276615 22.8121 0 23.3458 0C24.1321 0 24.8106 0.329979 25.3815 0.989938C26.0248 1.73998 26.6539 2.75782 27.2688 4.04347C27.8837 5.32911 28.3439 6.52468 28.6494 7.63016C32.3967 8.3802 34.2703 9.2639 34.2703 10.2812C34.2703 11.28 32.5392 12.1368 29.0768 12.8516C29.2012 14.2978 29.0225 15.7259 28.5407 17.1359H34.2703L32.076 23.1592C33.2001 23.7487 34.1597 24.6104 34.9548 25.7442C35.7499 26.8781 36.3339 28.1584 36.707 29.585C37.0801 31.0117 37.3391 32.3639 37.484 33.6417C37.6289 34.9195 37.7004 36.2448 37.6984 37.6176Z" fill="#091747"/>
</svg>
